<svg width="251" height="56" viewBox="0 0 251 56" fill="none" xmlns="http://www.w3.org/2000/svg">
<path d="M30.2543 22.3007C30.2543 24.2698 29.6368 26.1837 28.4981 27.7438C27.3594 29.3039 25.7635 30.4225 23.9592 30.9253C22.1549 31.4281 20.2437 31.2867 18.5235 30.5233C16.8034 29.7598 15.3709 28.4172 14.4496 26.7047C13.5283 24.9923 13.1698 23.0063 13.4301 21.0563C13.6904 19.1064 14.5549 17.3021 15.8887 15.9249C17.2225 14.5477 18.9507 13.6749 20.8038 13.4426C22.6569 13.2104 24.5307 13.6317 26.1331 14.6409L21.8009 22.3007H30.2543Z" fill="#230641"/>
<path d="M29.3644 47.7855C29.7953 49.6989 31.0968 51.333 32.9827 52.3281C34.8686 53.3233 37.1843 53.598 39.4205 53.092C41.6567 52.586 43.6301 51.3405 44.9066 49.6297" stroke="#230641" stroke-width="4" stroke-linecap="round"/>
<path d="M37.6864 22.3007C37.6864 31.748 30.3155 39.1014 21.5932 39.1014C12.871 39.1014 5.5 31.748 5.5 22.3007C5.5 12.8534 12.871 5.5 21.5932 5.5C30.3155 5.5 37.6864 12.8534 37.6864 22.3007Z" stroke="#5924ED" stroke-opacity="0.75" stroke-width="11"/>
<path d="M71.5 22.3007C71.5 31.748 64.129 39.1014 55.4068 39.1014C46.6845 39.1014 39.3135 31.748 39.3135 22.3007C39.3135 12.8534 46.6845 5.5 55.4068 5.5C64.129 5.5 71.5 12.8534 71.5 22.3007Z" stroke="#5924ED" stroke-opacity="0.75" stroke-width="11"/>
<ellipse cx="55.6144" cy="22.3007" rx="5.7839" ry="6.2442" fill="#230641"/>
<path d="M93.188 28.328C93.188 35.888 98.444 41.18 105.896 41.18C111.908 41.18 116.444 37.832 117.884 32.36H111.116C110.072 34.52 108.164 35.6 105.824 35.6C102.044 35.6 99.452 32.792 99.452 28.328C99.452 23.864 102.044 21.056 105.824 21.056C108.164 21.056 110.072 22.136 111.116 24.296H117.884C116.444 18.824 111.908 15.44 105.896 15.44C98.444 15.44 93.188 20.768 93.188 28.328ZM137.386 41H143.542V15.728H137.386V25.628H127.81V15.728H121.654V41H127.81V30.596H137.386V41ZM165.23 41H171.746L162.602 15.728H155.474L146.33 41H152.774L154.286 36.536H163.718L165.23 41ZM162.134 31.784H155.906L159.002 22.532L162.134 31.784ZM173.161 20.66H179.857V41H186.013V20.66H192.709V15.728H173.161V20.66ZM220.674 28.292C220.674 20.696 214.95 15.368 207.75 15.368C200.586 15.368 194.754 20.696 194.754 28.292C194.754 35.888 200.586 41.252 207.75 41.252C214.914 41.252 220.674 35.888 220.674 28.292ZM201.054 28.292C201.054 23.792 203.646 20.948 207.75 20.948C211.782 20.948 214.41 23.792 214.41 28.292C214.41 32.72 211.782 35.636 207.75 35.636C203.646 35.636 201.054 32.72 201.054 28.292ZM248.975 28.292C248.975 20.696 243.251 15.368 236.051 15.368C228.887 15.368 223.055 20.696 223.055 28.292C223.055 35.888 228.887 41.252 236.051 41.252C243.215 41.252 248.975 35.888 248.975 28.292ZM229.355 28.292C229.355 23.792 231.947 20.948 236.051 20.948C240.083 20.948 242.711 23.792 242.711 28.292C242.711 32.72 240.083 35.636 236.051 35.636C231.947 35.636 229.355 32.72 229.355 28.292Z" fill="#230641"/>
</svg>
